<svg width="37" height="37" viewBox="0 0 37 37" fill="none" xmlns="http://www.w3.org/2000/svg">
<circle cx="18.5" cy="18.5" r="18.5" fill="white"/>
<path d="M20.83 25C20.6806 25.0005 20.533 24.9675 20.398 24.9035C20.263 24.8394 20.1441 24.746 20.05 24.63L15.22 18.63C15.0729 18.451 14.9925 18.2266 14.9925 17.995C14.9925 17.7633 15.0729 17.5389 15.22 17.36L20.22 11.36C20.3898 11.1558 20.6337 11.0273 20.8981 11.0029C21.1625 10.9786 21.4258 11.0602 21.63 11.23C21.8342 11.3997 21.9627 11.6436 21.987 11.908C22.0114 12.1725 21.9297 12.4358 21.76 12.64L17.29 18L21.61 23.36C21.7323 23.5068 21.81 23.6855 21.8339 23.875C21.8577 24.0646 21.8268 24.257 21.7448 24.4295C21.6627 24.6021 21.5329 24.7475 21.3708 24.8486C21.2087 24.9497 21.021 25.0022 20.83 25Z" fill="black"/>
</svg>
