<svg width="16" height="16" viewBox="0 0 16 16" fill="none" xmlns="http://www.w3.org/2000/svg">
<path fill-rule="evenodd" clip-rule="evenodd" d="M7.99999 0.666626C3.94999 0.666626 0.666656 3.94996 0.666656 7.99996C0.666656 12.05 3.94999 15.3333 7.99999 15.3333C12.05 15.3333 15.3333 12.05 15.3333 7.99996C15.3333 3.94996 12.05 0.666626 7.99999 0.666626ZM11.1787 6.75996C11.2372 6.69305 11.2817 6.61512 11.3097 6.53074C11.3377 6.44636 11.3485 6.35723 11.3415 6.26862C11.3345 6.18 11.3099 6.09367 11.269 6.01471C11.2282 5.93575 11.172 5.86576 11.1037 5.80885C11.0354 5.75194 10.9564 5.70927 10.8714 5.68333C10.7864 5.6574 10.697 5.64873 10.6086 5.65784C10.5202 5.66695 10.4344 5.69366 10.3565 5.73638C10.2785 5.77911 10.2099 5.83699 10.1547 5.90663L7.28799 9.34596L5.80466 7.86196C5.67892 7.74052 5.51052 7.67332 5.33572 7.67484C5.16092 7.67636 4.99372 7.74647 4.87011 7.87008C4.74651 7.99369 4.67639 8.16089 4.67487 8.33569C4.67335 8.51049 4.74055 8.67889 4.86199 8.80463L6.86199 10.8046C6.92749 10.8701 7.00592 10.9212 7.09227 10.9547C7.17861 10.9881 7.27099 11.0033 7.3635 10.9991C7.45602 10.9949 7.54664 10.9714 7.6296 10.9303C7.71255 10.8891 7.78602 10.8311 7.84532 10.76L11.1787 6.75996Z" fill="#84BA2B"/>
</svg>
