<svg width="124" height="124" viewBox="0 0 124 124" fill="none" xmlns="http://www.w3.org/2000/svg">
<g filter="url(#filter0_d_125_4)">
<circle cx="62" cy="58" r="37" fill="white"/>
</g>
<path d="M63.9975 58.0001L70.0892 51.9226C70.3559 51.6558 70.5058 51.294 70.5058 50.9167C70.5058 50.5395 70.3559 50.1777 70.0892 49.9109C69.8224 49.6441 69.4606 49.4943 69.0833 49.4943C68.7061 49.4943 68.3443 49.6441 68.0775 49.9109L62 56.0026L55.9225 49.9109C55.6557 49.6441 55.2939 49.4943 54.9167 49.4943C54.5394 49.4943 54.1776 49.6441 53.9108 49.9109C53.6441 50.1777 53.4942 50.5395 53.4942 50.9167C53.4942 51.294 53.6441 51.6558 53.9108 51.9226L60.0025 58.0001L53.9108 64.0776C53.7781 64.2093 53.6727 64.3659 53.6007 64.5386C53.5288 64.7112 53.4918 64.8964 53.4918 65.0834C53.4918 65.2704 53.5288 65.4556 53.6007 65.6282C53.6727 65.8008 53.7781 65.9575 53.9108 66.0892C54.0425 66.222 54.1992 66.3274 54.3719 66.3993C54.5445 66.4712 54.7297 66.5083 54.9167 66.5083C55.1037 66.5083 55.2889 66.4712 55.4615 66.3993C55.6341 66.3274 55.7908 66.222 55.9225 66.0892L62 59.9976L68.0775 66.0892C68.2092 66.222 68.3659 66.3274 68.5385 66.3993C68.7112 66.4712 68.8963 66.5083 69.0833 66.5083C69.2704 66.5083 69.4555 66.4712 69.6282 66.3993C69.8008 66.3274 69.9575 66.222 70.0892 66.0892C70.222 65.9575 70.3273 65.8008 70.3993 65.6282C70.4712 65.4556 70.5082 65.2704 70.5082 65.0834C70.5082 64.8964 70.4712 64.7112 70.3993 64.5386C70.3273 64.3659 70.222 64.2093 70.0892 64.0776L63.9975 58.0001Z" fill="#E81111"/>
<defs>
<filter id="filter0_d_125_4" x="0" y="0" width="124" height="124" filterUnits="userSpaceOnUse" color-interpolation-filters="sRGB">
<feFlood flood-opacity="0" result="BackgroundImageFix"/>
<feColorMatrix in="SourceAlpha" type="matrix" values="0 0 0 0 0 0 0 0 0 0 0 0 0 0 0 0 0 0 127 0" result="hardAlpha"/>
<feOffset dy="4"/>
<feGaussianBlur stdDeviation="12.5"/>
<feComposite in2="hardAlpha" operator="out"/>
<feColorMatrix type="matrix" values="0 0 0 0 0 0 0 0 0 0 0 0 0 0 0 0 0 0 0.1 0"/>
<feBlend mode="normal" in2="BackgroundImageFix" result="effect1_dropShadow_125_4"/>
<feBlend mode="normal" in="SourceGraphic" in2="effect1_dropShadow_125_4" result="shape"/>
</filter>
</defs>
</svg>
