<svg width="10" height="10" viewBox="0 0 10 10" fill="none" xmlns="http://www.w3.org/2000/svg">
<path d="M5.00003 0.803589C6.92324 0.803589 8.48217 2.36252 8.48217 4.28573C8.48217 5.75716 7.44824 7.36073 5.40717 9.11359C5.29368 9.21108 5.14898 9.26463 4.99936 9.2645C4.84974 9.26437 4.70513 9.21057 4.59181 9.11287L4.45681 8.99573C2.5061 7.28859 1.51788 5.7243 1.51788 4.28573C1.51788 2.36252 3.07681 0.803589 5.00003 0.803589ZM5.00003 2.94645C4.64483 2.94645 4.30417 3.08755 4.05301 3.33871C3.80184 3.58988 3.66074 3.93053 3.66074 4.28573C3.66074 4.64093 3.80184 4.98159 4.05301 5.23275C4.30417 5.48391 4.64483 5.62502 5.00003 5.62502C5.35523 5.62502 5.69588 5.48391 5.94704 5.23275C6.19821 4.98159 6.33931 4.64093 6.33931 4.28573C6.33931 3.93053 6.19821 3.58988 5.94704 3.33871C5.69588 3.08755 5.35523 2.94645 5.00003 2.94645Z" fill="#FD397F"/>
</svg>
