<svg width="124" height="124" viewBox="0 0 124 124" fill="none" xmlns="http://www.w3.org/2000/svg">
<g filter="url(#filter0_d_125_6)">
<circle cx="62" cy="58" r="37" fill="white"/>
</g>
<path d="M72.6667 57.1867C72.9144 57.0021 73.0982 56.7446 73.1923 56.4503C73.2863 56.156 73.2859 55.8396 73.191 55.5456C73.0962 55.2515 72.9117 54.9945 72.6635 54.8106C72.4152 54.6267 72.1156 54.5251 71.8067 54.52L65.8067 54.2934C65.7772 54.2913 65.7489 54.2808 65.7252 54.263C65.7016 54.2453 65.6835 54.2211 65.6733 54.1934L63.6 48.5934C63.4958 48.3084 63.3066 48.0624 63.058 47.8886C62.8094 47.7148 62.5133 47.6216 62.21 47.6216C61.9066 47.6216 61.6106 47.7148 61.362 47.8886C61.1134 48.0624 60.9242 48.3084 60.82 48.5934L58.7533 54.2134C58.7431 54.2411 58.7251 54.2653 58.7014 54.283C58.6778 54.3008 58.6495 54.3113 58.62 54.3134L52.62 54.54C52.3111 54.5451 52.0115 54.6467 51.7632 54.8306C51.5149 55.0145 51.3304 55.2715 51.2356 55.5656C51.1408 55.8596 51.1403 56.176 51.2344 56.4703C51.3284 56.7646 51.5122 57.0221 51.76 57.2067L56.4667 60.9067C56.4902 60.9252 56.5078 60.9503 56.5173 60.9787C56.5268 61.0071 56.5277 61.0377 56.52 61.0667L54.9 66.8067C54.816 67.099 54.8242 67.41 54.9233 67.6975C55.0224 67.9851 55.2077 68.2351 55.4539 68.4135C55.7001 68.592 55.9953 68.6903 56.2994 68.6951C56.6035 68.6998 56.9016 68.6107 57.1533 68.44L62.1267 65.1067C62.1512 65.0898 62.1802 65.0807 62.21 65.0807C62.2398 65.0807 62.2688 65.0898 62.2933 65.1067L67.2667 68.44C67.5149 68.6166 67.812 68.7114 68.1167 68.7114C68.4213 68.7114 68.7184 68.6166 68.9667 68.44C69.2129 68.2632 69.3984 68.0144 69.4975 67.7279C69.5966 67.4414 69.6044 67.1312 69.52 66.84L67.8867 61.08C67.878 61.0511 67.8785 61.0202 67.888 60.9916C67.8976 60.963 67.9157 60.938 67.94 60.92L72.6667 57.1867Z" fill="#8125DD"/>
<defs>
<filter id="filter0_d_125_6" x="0" y="0" width="124" height="124" filterUnits="userSpaceOnUse" color-interpolation-filters="sRGB">
<feFlood flood-opacity="0" result="BackgroundImageFix"/>
<feColorMatrix in="SourceAlpha" type="matrix" values="0 0 0 0 0 0 0 0 0 0 0 0 0 0 0 0 0 0 127 0" result="hardAlpha"/>
<feOffset dy="4"/>
<feGaussianBlur stdDeviation="12.5"/>
<feComposite in2="hardAlpha" operator="out"/>
<feColorMatrix type="matrix" values="0 0 0 0 0 0 0 0 0 0 0 0 0 0 0 0 0 0 0.1 0"/>
<feBlend mode="normal" in2="BackgroundImageFix" result="effect1_dropShadow_125_6"/>
<feBlend mode="normal" in="SourceGraphic" in2="effect1_dropShadow_125_6" result="shape"/>
</filter>
</defs>
</svg>
